<svg width="7" height="11" viewBox="0 0 7 11" fill="none" xmlns="http://www.w3.org/2000/svg">
<path d="M6.06089 0.855017C6.15477 0.76113 6.20752 0.633792 6.20752 0.501017C6.20752 0.368241 6.15477 0.240903 6.06089 0.147017C5.967 0.0531299 5.83966 0.000385287 5.70689 0.000385284C5.57411 0.000385282 5.44677 0.0531299 5.35289 0.147017L6.06089 0.855017ZM0.706888 5.50102L0.352888 5.14702L-0.000112057 5.50102L0.352888 5.85502L0.706888 5.50102ZM5.35289 10.855C5.44677 10.9489 5.57411 11.0016 5.70689 11.0016C5.83966 11.0016 5.967 10.9489 6.06089 10.855C6.15477 10.7611 6.20752 10.6338 6.20752 10.501C6.20752 10.3682 6.15477 10.2409 6.06089 10.147L5.35289 10.855ZM5.35289 0.147017L0.352888 5.14702L1.06089 5.85502L6.06089 0.855017L5.35289 0.147017ZM0.352888 5.85502L5.35289 10.855L6.06089 10.147L1.06089 5.14702L0.352888 5.85502Z" fill="white"/>
</svg>
