<svg width="7" height="11" viewBox="0 0 7 11" fill="none" xmlns="http://www.w3.org/2000/svg">
<path d="M0.14712 10.147C0.0532334 10.2409 0.000488279 10.3682 0.000488281 10.501C0.000488284 10.6338 0.0532334 10.7611 0.14712 10.855C0.241007 10.9489 0.368344 11.0016 0.50112 11.0016C0.633896 11.0016 0.761234 10.9489 0.85512 10.855L0.14712 10.147ZM5.50112 5.501L5.85512 5.855L6.20812 5.501L5.85512 5.147L5.50112 5.501ZM0.85512 0.146998C0.761234 0.0531113 0.633896 0.00036621 0.50112 0.000366211C0.368344 0.000366212 0.241007 0.0531113 0.14712 0.146998C0.0532334 0.240885 0.000488282 0.368222 0.000488281 0.500998C0.00048828 0.633774 0.0532334 0.761111 0.14712 0.854998L0.85512 0.146998ZM0.85512 10.855L5.85512 5.855L5.14712 5.147L0.14712 10.147L0.85512 10.855ZM5.85512 5.147L0.85512 0.146998L0.14712 0.854998L5.14712 5.855L5.85512 5.147Z" fill="white"/>
</svg>
