<svg width="24" height="24" viewBox="0 0 24 24" fill="none" xmlns="http://www.w3.org/2000/svg">
<path fill-rule="evenodd" clip-rule="evenodd" d="M13.498 14.502C12.4861 15.2603 11.2244 15.607 9.96706 15.4723C8.70971 15.3376 7.55012 14.7314 6.72179 13.7759C5.89347 12.8205 5.45794 11.5866 5.50293 10.3229C5.54791 9.05913 6.07006 7.85937 6.96423 6.96521C7.85839 6.07104 9.05815 5.54889 10.3219 5.5039C11.5856 5.45892 12.8195 5.89444 13.775 6.72277C14.7304 7.55109 15.3366 8.71069 15.4713 9.96803C15.606 11.2254 15.2593 12.4871 14.501 13.499L13.498 14.5V14.502ZM14.535 15.596C13.2346 16.626 11.5895 17.1197 9.93682 16.9761C8.28412 16.8325 6.74888 16.0624 5.64555 14.8236C4.54222 13.5847 3.9543 11.9709 4.00223 10.3127C4.05015 8.65449 4.73029 7.07733 5.90332 5.9043C7.07636 4.73126 8.65351 4.05113 10.3117 4.0032C11.97 3.95528 13.5838 4.54319 14.8226 5.64653C16.0614 6.74986 16.8315 8.2851 16.9751 9.93779C17.1187 11.5905 16.625 13.2355 15.595 14.536L19.03 17.97C19.1037 18.0387 19.1628 18.1215 19.2038 18.2135C19.2448 18.3055 19.2669 18.4048 19.2686 18.5055C19.2704 18.6062 19.2519 18.7062 19.2142 18.7996C19.1765 18.893 19.1203 18.9778 19.0491 19.0491C18.9779 19.1203 18.893 19.1764 18.7996 19.2141C18.7063 19.2519 18.6062 19.2704 18.5055 19.2686C18.4048 19.2668 18.3055 19.2448 18.2135 19.2038C18.1215 19.1628 18.0387 19.1037 17.97 19.03L14.535 15.596Z" fill="white"/>
</svg>
