<svg width="24" height="24" viewBox="0 0 24 24" fill="none" xmlns="http://www.w3.org/2000/svg">
<path d="M15.4641 4.84997C14.8147 4.84537 14.1714 4.9758 13.5751 5.23299C12.9788 5.49018 12.4424 5.86851 12.0001 6.34397L11.9001 6.45697C11.4741 5.99033 10.954 5.61923 10.3742 5.3681C9.79436 5.11697 9.16791 4.99151 8.5361 4.99997V4.84997H8.5351C5.9501 4.84997 3.8501 6.90797 3.8501 9.45297C3.8501 10.549 4.3441 11.687 5.0701 12.771C5.7981 13.856 6.7681 14.901 7.7441 15.816C8.89282 16.8856 10.1173 17.8708 11.4081 18.764C11.6321 18.918 11.7881 19.018 11.8441 19.049C11.9275 19.102 12.0243 19.1302 12.1231 19.1302C12.2219 19.1302 12.3187 19.102 12.4021 19.049C12.4571 19.019 12.6101 18.918 12.8281 18.765C14.0833 17.8783 15.2709 16.8996 16.3811 15.837C17.3261 14.927 18.2651 13.882 18.9691 12.794C19.6721 11.707 20.1501 10.562 20.1501 9.45297C20.1501 6.90797 18.0501 4.85097 15.4641 4.84997ZM8.5371 5.94497H8.5391C9.1305 5.93563 9.7147 6.07573 10.2375 6.35227C10.7604 6.62882 11.205 7.03286 11.5301 7.52697L11.5351 7.53397C11.6257 7.65573 11.7604 7.73712 11.9104 7.76068C12.0603 7.78424 12.2135 7.74808 12.3371 7.65997C12.3861 7.62497 12.4293 7.58245 12.4651 7.53397L12.4691 7.52797C13.5491 5.90697 15.7671 5.44997 17.4221 6.51197C17.9171 6.82658 18.3249 7.26088 18.6077 7.77474C18.8905 8.28859 19.0392 8.86544 19.0401 9.45197C19.0401 10.277 18.6881 11.182 18.1231 12.095C17.5601 13.007 16.7951 13.912 15.9901 14.735C14.4401 16.315 12.7601 17.571 12.1231 17.951C11.4801 17.561 9.7391 16.294 8.1311 14.711C7.2951 13.886 6.4991 12.981 5.9141 12.073C5.3261 11.163 4.9601 10.265 4.9601 9.45297C4.9601 7.51797 6.5591 5.94497 8.5371 5.94497Z" fill="white"/>
<path d="M15.4641 4.84997C14.8147 4.84537 14.1714 4.9758 13.5751 5.23299C12.9788 5.49018 12.4424 5.86851 12.0001 6.34397L11.9001 6.45697C11.4741 5.99033 10.954 5.61923 10.3742 5.3681C9.79436 5.11697 9.16791 4.99151 8.5361 4.99997V4.84997H8.5351C5.9501 4.84997 3.8501 6.90797 3.8501 9.45297C3.8501 10.549 4.3441 11.687 5.0701 12.771C5.7981 13.856 6.7681 14.901 7.7441 15.816C8.89282 16.8856 10.1173 17.8708 11.4081 18.764C11.6321 18.918 11.7881 19.018 11.8441 19.049C11.9275 19.102 12.0243 19.1302 12.1231 19.1302C12.2219 19.1302 12.3187 19.102 12.4021 19.049C12.4571 19.019 12.6101 18.918 12.8281 18.765C14.0833 17.8783 15.2709 16.8996 16.3811 15.837C17.3261 14.927 18.2651 13.882 18.9691 12.794C19.6721 11.707 20.1501 10.562 20.1501 9.45297C20.1501 6.90797 18.0501 4.85097 15.4641 4.84997ZM15.4641 4.84997V4.99997M8.5371 5.94497H8.5391C9.1305 5.93563 9.7147 6.07573 10.2375 6.35227C10.7604 6.62882 11.205 7.03286 11.5301 7.52697L11.5351 7.53397C11.6257 7.65573 11.7604 7.73712 11.9104 7.76068C12.0603 7.78424 12.2135 7.74808 12.3371 7.65997C12.3861 7.62497 12.4293 7.58245 12.4651 7.53397L12.4691 7.52797C13.5491 5.90697 15.7671 5.44997 17.4221 6.51197C17.9171 6.82658 18.3249 7.26088 18.6077 7.77474C18.8905 8.28859 19.0392 8.86544 19.0401 9.45197C19.0401 10.277 18.6881 11.182 18.1231 12.095C17.5601 13.007 16.7951 13.912 15.9901 14.735C14.4401 16.315 12.7601 17.571 12.1231 17.951C11.4801 17.561 9.7391 16.294 8.1311 14.711C7.2951 13.886 6.4991 12.981 5.9141 12.073C5.3261 11.163 4.9601 10.265 4.9601 9.45297C4.9601 7.51797 6.5591 5.94497 8.5371 5.94497Z" stroke="white" stroke-width="0.3"/>
</svg>
