<svg width="24" height="24" viewBox="0 0 24 24" fill="none" xmlns="http://www.w3.org/2000/svg">
<path fill-rule="evenodd" clip-rule="evenodd" d="M8.737 6.99998C9.097 4.99498 10.513 3.64998 12 3.64998C13.487 3.64998 14.903 4.99498 15.263 6.99998H8.737ZM7.424 6.99998C7.804 4.44998 9.61 2.34998 12 2.34998C14.39 2.34998 16.196 4.44998 16.576 6.99998H18C18.2652 6.99998 18.5196 7.10533 18.7071 7.29287C18.8946 7.48041 19 7.73476 19 7.99998V18C19 18.2652 18.8946 18.5195 18.7071 18.7071C18.5196 18.8946 18.2652 19 18 19H6C5.73478 19 5.48043 18.8946 5.29289 18.7071C5.10536 18.5195 5 18.2652 5 18V7.99998C5 7.73476 5.10536 7.48041 5.29289 7.29287C5.48043 7.10533 5.73478 6.99998 6 6.99998H7.424ZM6.3 17.7V8.29998H17.7V17.7H6.3Z" fill="white"/>
</svg>
